<svg xmlns="http://www.w3.org/2000/svg" width="306" height="16" viewBox="0 0 306 16"><g><g><g><text dominant-baseline="text-before-edge" style="line-height:24px" fill="#999" font-family="'Roboto-LightItalic','Roboto-LightItalic'" font-size="15" font-style="none" font-weight="400" transform="translate(0 2)"><tspan style="font-kerning:normal">Follow Us:</tspan></text></g></g><g><g><path fill="#95e1d3" d="M248.996 4.759v6.618c0 1.33-1.1 2.14-2.459 2.14h-10.654c-1.358 0-2.883-.81-2.883-2.14V4.76c0-1.33 1.525-2.236 2.883-2.236l5.43-.005 5.224.005c1.359 0 2.46.906 2.46 2.236zm-5.556 3.309l-3.508-2.542.032 5.04z"/></g><g><path fill="#95e1d3" d="M216.5 4.717v2.44h-1v-2.44H213v-.998h2.5V1.28h1v2.44h2.5v.998zm-6.915-2.47c.888.49 1.408 1.287 1.408 2.33 0 .876-.541 1.566-1.24 2.102-.68.522-.81.742-.81 1.186 0 .378.73 1.024 1.112 1.289 1.114.774 1.444 1.493 1.444 2.693 0 1.497-1.444 3.169-4.116 3.169-2.344 0-4.383-1.12-4.383-2.618 0-1.52 1.866-2.987 4.21-2.987.255 0 .489-.01.73-.01-.32-.307-.573-.688-.573-1.151 0-.275.089-.55.214-.785-.128.009-.258-.012-.392-.012-1.924 0-3.214-1.391-3.214-3.057 0-1.631 1.78-3.133 3.673-3.133h4.22l-.945.983zm-1.93 7.552c-1.619-.017-3.07.97-3.07 2.156 0 1.21 1.17 2.094 2.79 2.094 2.276 0 3.07-.823 3.07-2.032 0-.146-.018-.29-.052-.428-.178-.685-.808-1.024-1.688-1.624a3.6 3.6 0 0 0-1.05-.166zm1.82-5.203c-.188-1.402-1.268-2.528-2.355-2.559-1.087-.032-1.816 1.04-1.628 2.443.188 1.403 1.22 2.566 2.308 2.597 1.087.032 1.863-1.079 1.676-2.481z"/></g><g><path fill="#95e1d3" d="M306.009 15.145c-.68.321-1.297.548-1.849.678a7.804 7.804 0 0 1-1.79.195 4.868 4.868 0 0 1-1.717-.276 4.173 4.173 0 0 1-1.43-.79c-.397-.343-.67-.708-.824-1.092-.152-.386-.228-.944-.228-1.677V6.569h-2.164V4.302c.626-.204 1.351-.497 1.796-.879.448-.382.805-.84 1.075-1.375.27-.534.457-1.213.558-2.04h2.265v3.704h3.682v2.857h-3.682v4.105c0 .929-.012 1.464.086 1.727.097.262.341.534.607.69.353.213.755.32 1.209.32.806 0 1.608-.264 2.406-.79z"/></g><g><path fill="#95e1d3" d="M157 16.015h-12a2 2 0 0 1-2-2v-12a2 2 0 0 1 2-2h12a2 2 0 0 1 2 2v12a2 2 0 0 1-2 2zm-6-11.1c-1.247 0-2.32.738-2.811 1.8h-.003l-.014.034c-.03.065-.055.133-.08.201-.012.032-.025.064-.036.097-.023.07-.042.141-.06.213-.008.033-.018.066-.025.1a3.113 3.113 0 0 0-.038.23l-.015.093a3.1 3.1 0 1 0 6.163 0c-.003-.031-.01-.062-.014-.093a3.176 3.176 0 0 0-.038-.23c-.007-.034-.017-.067-.026-.1a3.17 3.17 0 0 0-.06-.213c-.01-.033-.023-.065-.035-.097a2.975 2.975 0 0 0-.08-.2l-.014-.035h-.003a3.098 3.098 0 0 0-2.811-1.8zm6.2-2.3a.8.8 0 0 0-.8-.8h-1.6a.8.8 0 0 0-.8.8v1.6a.8.8 0 0 0 .8.8h1.6a.8.8 0 0 0 .8-.8zm0 4.1h-1.475a4.9 4.9 0 1 1-9.45 0H144.8v6.7a.8.8 0 0 0 .8.8h10.8a.8.8 0 0 0 .8-.8z"/></g><g><path fill="#95e1d3" d="M123.883 1.516c1.271-.023 1.948.44 2.594 1.03.55-.048 1.262-.354 1.682-.567l.409-.224c-.24.649-.566 1.156-1.066 1.54-.11.087-.22.202-.36.257v.007c.712-.007 1.3-.328 1.858-.502v.008c-.293.466-.69.938-1.113 1.277l-.513.407c.01.755-.01 1.474-.152 2.108-.82 3.685-2.992 6.186-6.43 7.257-1.235.385-3.23.544-4.645.192a11.984 11.984 0 0 1-1.93-.63c-.33-.145-.636-.3-.929-.48a67.752 67.752 0 0 1-.288-.176c.319.01.692.098 1.05.04.322-.051.638-.038.936-.103.742-.163 1.402-.378 1.97-.71.275-.162.693-.35.889-.583a2.803 2.803 0 0 1-.977-.176c-1.062-.375-1.68-1.065-2.082-2.1.322.035 1.248.12 1.465-.064-.405-.022-.794-.257-1.073-.431-.854-.534-1.55-1.431-1.545-2.81.112.052.224.106.336.16.214.09.433.138.689.191.108.022.324.086.448.04h-.016c-.165-.192-.434-.32-.6-.527-.549-.682-1.062-1.73-.737-2.978.082-.317.213-.596.352-.854l.016.008c.064.133.206.231.296.343a6 6 0 0 0 .977.934c1.2.937 2.279 1.514 4.012 1.94.44.108.949.19 1.474.192-.148-.43-.1-1.126.016-1.541.292-1.046.927-1.8 1.858-2.204.222-.096.47-.167.728-.223l.4-.048z"/></g><g><path fill="#95e1d3" d="M94.993.015V2.59s-1.898-.189-2.374.538c-.26.399-.105 1.563-.128 2.399h2.518c-.213.978-.365 1.64-.522 2.487h-2.01v8.002h-3.489v-7.97h-1.484v-2.52h1.468c.075-1.84.103-3.664 1.018-4.593C91.018-.11 91.998.015 94.993.015z"/></g><g><path fill="#95e1d3" d="M179.844 10.424c-.13.521-.262 1.066-.398 1.6-.135.526-.253 1.06-.449 1.543-.324.801-.736 1.575-1.277 2.201-.36.417-.283.25-.391.228-.083-.017-.09-.097-.106-.215-.088-.636-.028-1.372.005-2.087.037-.815.208-1.493.367-2.17.303-1.29.592-2.554.897-3.851.02-.087.075-.23.057-.279a4.015 4.015 0 0 1-.268-1.062 3.38 3.38 0 0 1 .087-1.215c.172-.661.57-1.248 1.183-1.461.39-.136.822-.075 1.084.082.27.161.456.417.542.778.093.385.025.845-.05 1.183-.166.76-.386 1.333-.585 2.068-.099.365-.21.739-.118 1.132.085.362.273.61.53.797.265.193.58.3 1.015.285.767-.027 1.3-.517 1.657-.98.57-.74.915-1.74 1.046-2.93.043-.382.074-.823.044-1.258-.054-.802-.306-1.447-.704-1.948a3.297 3.297 0 0 0-1.57-1.069c-.648-.212-1.545-.282-2.342-.145-1.448.248-2.47 1.07-3.072 2.207a4.427 4.427 0 0 0-.523 2.131c0 .657.162 1.166.424 1.563.083.125.205.23.286.373.116.204-.018.508-.075.728-.068.265-.076.633-.386.639-.128.002-.29-.092-.399-.152-.815-.451-1.31-1.271-1.513-2.334a5.587 5.587 0 0 1 0-2.025 5.77 5.77 0 0 1 2.747-3.84 6.53 6.53 0 0 1 2.442-.84c.318-.046.647-.065 1.003-.083a6.027 6.027 0 0 1 2.704.507 5.534 5.534 0 0 1 1.863 1.34 5.077 5.077 0 0 1 1.146 2.07c.126.431.249.895.249 1.429 0 .535-.114 1.008-.193 1.48-.296 1.767-1.137 3.212-2.398 4.035-.306.2-.677.384-1.097.506-.417.121-.892.213-1.402.177a2.879 2.879 0 0 1-1.24-.36c-.337-.19-.62-.424-.822-.778z"/></g><g><path fill="#95e1d3" d="M279 8.014a8.025 8.025 0 0 1-.629 3.115 7.955 7.955 0 0 1-1.714 2.543 8.051 8.051 0 0 1-2.543 1.714 7.985 7.985 0 0 1-3.114.63 7.968 7.968 0 0 1-4.474-1.368 8.056 8.056 0 0 1-2.16-2.16A7.955 7.955 0 0 1 263 8.015a7.993 7.993 0 0 1 4.886-7.37A7.948 7.948 0 0 1 271 .014a8.003 8.003 0 0 1 3.114.63 7.96 7.96 0 0 1 2.543 1.714 8.015 8.015 0 0 1 1.714 2.542 7.974 7.974 0 0 1 .63 3.114zm-2.723-4.339c-.013.018-1.109 1.603-3.807 2.704a21.207 21.207 0 0 1 .601 1.344c2.348-.295 4.66.202 4.76.224a6.801 6.801 0 0 0-1.554-4.272zM271 1.182c-.555 0-1.094.068-1.61.193.103.135 1.386 1.84 2.554 3.986 2.579-.966 3.552-2.447 3.569-2.473A6.804 6.804 0 0 0 271 1.182zm-1.658.205a.217.217 0 0 0 .02-.005l.002-.001c-.008.002-.015.003-.022.006zm-5.028 5.22c.18.003 3.027.037 6.308-.835a41.142 41.142 0 0 0-2.537-3.936 6.842 6.842 0 0 0-3.771 4.77zm1.604 5.974c0-.002-.002-.003-.002-.003s1.87-3.318 5.557-4.51c.09-.029.179-.056.269-.082a22.17 22.17 0 0 0-.554-1.16c-3.518 1.052-6.894.975-7.015.972-.002.072-.005.144-.005.216 0 1.756.662 3.356 1.75 4.567zm7.75 1.726c-.102-.598-.499-2.69-1.46-5.188l-.045.014c-4.052 1.411-5.362 4.268-5.362 4.268s-.063-.047-.153-.12A6.803 6.803 0 0 0 271 14.847c.946 0 1.848-.192 2.667-.54zm4.078-5.207c-.141-.047-2.052-.651-4.258-.298.896 2.462 1.26 4.467 1.33 4.88a6.836 6.836 0 0 0 2.928-4.582z"/></g></g></g></svg>