<svg xmlns="http://www.w3.org/2000/svg" width="132" height="86" viewBox="0 0 132 86"><g><g><path fill="#f38181" d="M66 25.8s-9.6-10.699-9.6-16S60.698.2 66 .2s9.6 4.299 9.6 9.6c0 5.301-9.6 16-9.6 16zm0-22.4a6.4 6.4 0 1 0 0 12.8 6.4 6.4 0 0 0 0-12.8zm0 9.6a3.2 3.2 0 1 1 0-6.4 3.2 3.2 0 0 1 0 6.4z"/></g><g><g><text dominant-baseline="text-before-edge" style="text-transform:uppercase" fill="#f38181" font-family="'Montserrat','Montserrat-Bold'" font-size="24" font-style="none" font-weight="700" transform="translate(0 44)"><tspan style="font-kerning:normal">Open map</tspan></text></g></g><g><path fill="#f38181" d="M36 83h60v3H36z"/></g></g></svg>